<?xml version="1.0" encoding="utf-8"?>
<!-- Generator: Adobe Illustrator 19.0.0, SVG Export Plug-In . SVG Version: 6.00 Build 0)  -->
<svg version="1.1" id="Layer_1" xmlns="http://www.w3.org/2000/svg" xmlns:xlink="http://www.w3.org/1999/xlink" x="0px" y="0px"
	 width="1400px" height="1400px" viewBox="0 0 1400 1400" enable-background="new 0 0 1400 1400" xml:space="preserve">
<g id="XMLID_21_">
	<linearGradient id="XMLID_2_" gradientUnits="userSpaceOnUse" x1="709.1503" y1="1064.59" x2="709.1503" y2="7.7795">
		<stop  offset="0" style="stop-color:#FFFFFF"/>
		<stop  offset="1" style="stop-color:#FFE39A"/>
	</linearGradient>
	<path id="XMLID_644_" fill-rule="evenodd" clip-rule="evenodd" fill="url(#XMLID_2_)" d="M396.9,1175.7
		c-88.4-19.6-172.6-65.1-216.2-134.8c-31.3-50.1-37.8-115.6-12.1-169.4c13.1-27.4,37.2-37.2,57.6-58.4
		c34.4-35.6,59.7-66.7,83.5-111.3c22.3-41.9,45.8-87.3,89.4-110.6c21.7-11.6,46.5-16.4,68-28.3c54.1-29.8,75.4-94.9,107.1-147.9
		c60.1-100.5,175.3-167.9,292.3-162.7c117,5.2,228.9,87.3,261.5,199.7c25.6,88.1,6.3,190.6,58,266.4c14.8,21.6,34.6,39.6,48.5,61.8
		c18.8,29.9,25.9,65.6,29,100.8c4.4,50.5,1.1,101.6-9.8,151.1c-15.3,69.9-46.4,124.2-113,151.9c-36,15-91.5,3-131,2.3
		c-48.5-0.8-97-1.7-145.5-2.5C708.6,1181.1,552.8,1178.4,396.9,1175.7z"/>
	<linearGradient id="XMLID_3_" gradientUnits="userSpaceOnUse" x1="385.3723" y1="652.5671" x2="385.3723" y2="313.2384">
		<stop  offset="0" style="stop-color:#FFFFFF"/>
		<stop  offset="1" style="stop-color:#FFE39A"/>
	</linearGradient>
	<path id="XMLID_687_" fill-rule="evenodd" clip-rule="evenodd" fill="url(#XMLID_3_)" d="M518.1,667.6H252.6
		c10.2-43.1,47.7-31.8,47.7-31.8c2.8-85,99.9-87.8,113.9-30.8c19.9-20.9,68.9-5.6,68.8,30.8C510.2,635.8,519,656.5,518.1,667.6z"/>
	<linearGradient id="XMLID_4_" gradientUnits="userSpaceOnUse" x1="1001.85" y1="472.8597" x2="1001.85" y2="154.7591">
		<stop  offset="0" style="stop-color:#FFFFFF"/>
		<stop  offset="1" style="stop-color:#FFE39A"/>
	</linearGradient>
	<path id="XMLID_22_" fill-rule="evenodd" clip-rule="evenodd" fill="url(#XMLID_4_)" d="M1222.8,537H780.8
		c17-71.8,79.5-52.9,79.5-52.9c4.6-141.5,166.2-146.2,189.7-51.3c33.1-34.7,114.7-9.3,114.6,51.3
		C1209.7,484.1,1224.4,518.5,1222.8,537z"/>
	<g id="XMLID_914_">
		<linearGradient id="XMLID_5_" gradientUnits="userSpaceOnUse" x1="590.0676" y1="1002.4073" x2="706.0676" y2="1256.4073">
			<stop  offset="0" style="stop-color:#FFFFFF"/>
			<stop  offset="0.5108" style="stop-color:#EED87F"/>
			<stop  offset="1" style="stop-color:#BCB62F"/>
		</linearGradient>
		<path id="XMLID_980_" fill-rule="evenodd" clip-rule="evenodd" fill="url(#XMLID_5_)" d="M153.1,1158.1h1033.1
			c10.2,0,18.6,8.4,18.6,18.6v0c0,10.2-8.4,18.6-18.6,18.6H153.1c-10.2,0-18.6-8.4-18.6-18.6v0
			C134.5,1166.5,142.9,1158.1,153.1,1158.1"/>
		<g id="XMLID_12_">
			
				<rect id="XMLID_989_" x="647.9" y="717.1" fill-rule="evenodd" clip-rule="evenodd" fill="#EAD9C3" width="211.9" height="394.5"/>
			<linearGradient id="XMLID_6_" gradientUnits="userSpaceOnUse" x1="277.7432" y1="836.6293" x2="1175.3798" y2="836.6293">
				<stop  offset="0" style="stop-color:#FFE39A"/>
				<stop  offset="1" style="stop-color:#FFA954"/>
			</linearGradient>
			
				<rect id="XMLID_979_" x="277.7" y="816.2" fill-rule="evenodd" clip-rule="evenodd" fill="url(#XMLID_6_)" width="897.6" height="40.9"/>
			
				<rect id="XMLID_978_" x="212.1" y="744.9" fill-rule="evenodd" clip-rule="evenodd" fill="#F6B653" width="65.6" height="413.2"/>
			<linearGradient id="XMLID_7_" gradientUnits="userSpaceOnUse" x1="119.4192" y1="739.7643" x2="473.4192" y2="1377.7644">
				<stop  offset="0" style="stop-color:#FFFFFF"/>
				<stop  offset="0.5269" style="stop-color:#FFE39A"/>
				<stop  offset="1" style="stop-color:#FFA954"/>
			</linearGradient>
			
				<rect id="XMLID_977_" x="205.3" y="744.9" fill-rule="evenodd" clip-rule="evenodd" fill="url(#XMLID_7_)" width="63.2" height="413.2"/>
			<linearGradient id="XMLID_9_" gradientUnits="userSpaceOnUse" x1="153.2057" y1="844.6879" x2="497.2057" y2="1506.6879">
				<stop  offset="0" style="stop-color:#FFFFFF"/>
				<stop  offset="0.5269" style="stop-color:#FFE39A"/>
				<stop  offset="1" style="stop-color:#FFA954"/>
			</linearGradient>
			
				<rect id="XMLID_976_" x="205.3" y="744.9" fill-rule="evenodd" clip-rule="evenodd" fill="url(#XMLID_9_)" width="6.8" height="413.2"/>
			<path id="XMLID_975_" fill-rule="evenodd" clip-rule="evenodd" fill="#F6B653" d="M245.4,828.2c4.7,0,8.4,3.8,8.4,8.4
				c0,4.7-3.8,8.4-8.4,8.4s-8.4-3.8-8.4-8.4C236.9,832,240.7,828.2,245.4,828.2"/>
			<path id="XMLID_974_" fill-rule="evenodd" clip-rule="evenodd" fill="#F6B653" d="M245.4,1075.5c4.7,0,8.4,3.8,8.4,8.4
				c0,4.7-3.8,8.4-8.4,8.4s-8.4-3.8-8.4-8.4C236.9,1079.2,240.7,1075.5,245.4,1075.5"/>
			<linearGradient id="XMLID_10_" gradientUnits="userSpaceOnUse" x1="277.7432" y1="1083.9003" x2="1175.3798" y2="1083.9003">
				<stop  offset="0" style="stop-color:#FFE39A"/>
				<stop  offset="1" style="stop-color:#FFA954"/>
			</linearGradient>
			
				<rect id="XMLID_973_" x="277.7" y="1063.4" fill-rule="evenodd" clip-rule="evenodd" fill="url(#XMLID_10_)" width="897.6" height="40.9"/>
			
				<rect id="XMLID_972_" x="361.7" y="744.9" fill-rule="evenodd" clip-rule="evenodd" fill="#F6B653" width="65.6" height="413.2"/>
			<linearGradient id="XMLID_11_" gradientUnits="userSpaceOnUse" x1="233.8083" y1="676.2946" x2="587.8083" y2="1314.2946">
				<stop  offset="0" style="stop-color:#FFFFFF"/>
				<stop  offset="0.5269" style="stop-color:#FFE39A"/>
				<stop  offset="1" style="stop-color:#FFA954"/>
			</linearGradient>
			
				<rect id="XMLID_971_" x="354.9" y="744.9" fill-rule="evenodd" clip-rule="evenodd" fill="url(#XMLID_11_)" width="63.2" height="413.2"/>
			<linearGradient id="XMLID_13_" gradientUnits="userSpaceOnUse" x1="271.0037" y1="783.4756" x2="615.0037" y2="1445.4756">
				<stop  offset="0" style="stop-color:#FFFFFF"/>
				<stop  offset="0.5269" style="stop-color:#FFE39A"/>
				<stop  offset="1" style="stop-color:#FFA954"/>
			</linearGradient>
			
				<rect id="XMLID_970_" x="354.9" y="744.9" fill-rule="evenodd" clip-rule="evenodd" fill="url(#XMLID_13_)" width="6.8" height="413.2"/>
			<path id="XMLID_969_" fill-rule="evenodd" clip-rule="evenodd" fill="#F6B653" d="M395,828.2c4.7,0,8.4,3.8,8.4,8.4
				c0,4.7-3.8,8.4-8.4,8.4c-4.7,0-8.4-3.8-8.4-8.4C386.5,832,390.3,828.2,395,828.2"/>
			<path id="XMLID_968_" fill-rule="evenodd" clip-rule="evenodd" fill="#F6B653" d="M395,1075.5c4.7,0,8.4,3.8,8.4,8.4
				c0,4.7-3.8,8.4-8.4,8.4c-4.7,0-8.4-3.8-8.4-8.4C386.5,1079.2,390.3,1075.5,395,1075.5"/>
			
				<rect id="XMLID_967_" x="511.3" y="744.9" fill-rule="evenodd" clip-rule="evenodd" fill="#F6B653" width="65.6" height="413.2"/>
			<linearGradient id="XMLID_14_" gradientUnits="userSpaceOnUse" x1="348.1976" y1="612.8246" x2="702.1976" y2="1250.8246">
				<stop  offset="0" style="stop-color:#FFFFFF"/>
				<stop  offset="0.5269" style="stop-color:#FFE39A"/>
				<stop  offset="1" style="stop-color:#FFA954"/>
			</linearGradient>
			
				<rect id="XMLID_966_" x="504.5" y="744.9" fill-rule="evenodd" clip-rule="evenodd" fill="url(#XMLID_14_)" width="63.2" height="413.2"/>
			<linearGradient id="XMLID_15_" gradientUnits="userSpaceOnUse" x1="388.8017" y1="722.2634" x2="732.8017" y2="1384.2634">
				<stop  offset="0" style="stop-color:#FFFFFF"/>
				<stop  offset="0.5269" style="stop-color:#FFE39A"/>
				<stop  offset="1" style="stop-color:#FFA954"/>
			</linearGradient>
			
				<rect id="XMLID_965_" x="504.5" y="744.9" fill-rule="evenodd" clip-rule="evenodd" fill="url(#XMLID_15_)" width="6.8" height="413.2"/>
			<path id="XMLID_964_" fill-rule="evenodd" clip-rule="evenodd" fill="#F6B653" d="M544.6,828.2c4.7,0,8.4,3.8,8.4,8.4
				c0,4.7-3.8,8.4-8.4,8.4s-8.4-3.8-8.4-8.4C536.1,832,539.9,828.2,544.6,828.2"/>
			<path id="XMLID_963_" fill-rule="evenodd" clip-rule="evenodd" fill="#F6B653" d="M544.6,1075.5c4.7,0,8.4,3.8,8.4,8.4
				c0,4.7-3.8,8.4-8.4,8.4s-8.4-3.8-8.4-8.4C536.1,1079.2,539.9,1075.5,544.6,1075.5"/>
			
				<rect id="XMLID_962_" x="660.9" y="744.9" fill-rule="evenodd" clip-rule="evenodd" fill="#F6B653" width="65.6" height="413.2"/>
			<linearGradient id="XMLID_16_" gradientUnits="userSpaceOnUse" x1="462.5869" y1="549.3547" x2="816.5869" y2="1187.3547">
				<stop  offset="0" style="stop-color:#FFFFFF"/>
				<stop  offset="0.5269" style="stop-color:#FFE39A"/>
				<stop  offset="1" style="stop-color:#FFA954"/>
			</linearGradient>
			
				<rect id="XMLID_961_" x="654.1" y="744.9" fill-rule="evenodd" clip-rule="evenodd" fill="url(#XMLID_16_)" width="63.2" height="413.2"/>
			<linearGradient id="XMLID_17_" gradientUnits="userSpaceOnUse" x1="506.5997" y1="661.0511" x2="850.5997" y2="1323.0511">
				<stop  offset="0" style="stop-color:#FFFFFF"/>
				<stop  offset="0.5269" style="stop-color:#FFE39A"/>
				<stop  offset="1" style="stop-color:#FFA954"/>
			</linearGradient>
			
				<rect id="XMLID_960_" x="654.1" y="744.9" fill-rule="evenodd" clip-rule="evenodd" fill="url(#XMLID_17_)" width="6.8" height="413.2"/>
			<path id="XMLID_959_" fill-rule="evenodd" clip-rule="evenodd" fill="#F6B653" d="M694.2,828.2c4.7,0,8.4,3.8,8.4,8.4
				c0,4.7-3.8,8.4-8.4,8.4c-4.7,0-8.4-3.8-8.4-8.4C685.7,832,689.5,828.2,694.2,828.2"/>
			<path id="XMLID_958_" fill-rule="evenodd" clip-rule="evenodd" fill="#F6B653" d="M694.2,1075.5c4.7,0,8.4,3.8,8.4,8.4
				c0,4.7-3.8,8.4-8.4,8.4c-4.7,0-8.4-3.8-8.4-8.4C685.7,1079.2,689.5,1075.5,694.2,1075.5"/>
			
				<rect id="XMLID_957_" x="810.5" y="744.9" fill-rule="evenodd" clip-rule="evenodd" fill="#F6B653" width="65.6" height="413.2"/>
			<linearGradient id="XMLID_18_" gradientUnits="userSpaceOnUse" x1="576.9761" y1="485.8849" x2="930.9761" y2="1123.8849">
				<stop  offset="0" style="stop-color:#FFFFFF"/>
				<stop  offset="0.5269" style="stop-color:#FFE39A"/>
				<stop  offset="1" style="stop-color:#FFA954"/>
			</linearGradient>
			
				<rect id="XMLID_956_" x="803.7" y="744.9" fill-rule="evenodd" clip-rule="evenodd" fill="url(#XMLID_18_)" width="63.2" height="413.2"/>
			<linearGradient id="XMLID_19_" gradientUnits="userSpaceOnUse" x1="624.3974" y1="599.8391" x2="968.3974" y2="1261.839">
				<stop  offset="0" style="stop-color:#FFFFFF"/>
				<stop  offset="0.5269" style="stop-color:#FFE39A"/>
				<stop  offset="1" style="stop-color:#FFA954"/>
			</linearGradient>
			
				<rect id="XMLID_955_" x="803.7" y="744.9" fill-rule="evenodd" clip-rule="evenodd" fill="url(#XMLID_19_)" width="6.8" height="413.2"/>
			<path id="XMLID_953_" fill-rule="evenodd" clip-rule="evenodd" fill="#F6B653" d="M843.8,1075.5c4.7,0,8.4,3.8,8.4,8.4
				c0,4.7-3.8,8.4-8.4,8.4c-4.7,0-8.4-3.8-8.4-8.4C835.3,1079.2,839.1,1075.5,843.8,1075.5"/>
			
				<rect id="XMLID_952_" x="960.1" y="744.9" fill-rule="evenodd" clip-rule="evenodd" fill="#F6B653" width="65.6" height="413.2"/>
			<linearGradient id="XMLID_20_" gradientUnits="userSpaceOnUse" x1="691.3654" y1="422.4149" x2="1045.3654" y2="1060.4149">
				<stop  offset="0" style="stop-color:#FFFFFF"/>
				<stop  offset="0.5269" style="stop-color:#FFE39A"/>
				<stop  offset="1" style="stop-color:#FFA954"/>
			</linearGradient>
			
				<rect id="XMLID_951_" x="953.3" y="744.9" fill-rule="evenodd" clip-rule="evenodd" fill="url(#XMLID_20_)" width="63.2" height="413.2"/>
			<linearGradient id="XMLID_23_" gradientUnits="userSpaceOnUse" x1="742.1954" y1="538.6268" x2="1086.1953" y2="1200.6268">
				<stop  offset="0" style="stop-color:#FFFFFF"/>
				<stop  offset="0.5269" style="stop-color:#FFE39A"/>
				<stop  offset="1" style="stop-color:#FFA954"/>
			</linearGradient>
			
				<rect id="XMLID_950_" x="953.3" y="744.9" fill-rule="evenodd" clip-rule="evenodd" fill="url(#XMLID_23_)" width="6.8" height="413.2"/>
			<path id="XMLID_949_" fill-rule="evenodd" clip-rule="evenodd" fill="#F6B653" d="M993.4,828.2c4.7,0,8.4,3.8,8.4,8.4
				c0,4.7-3.8,8.4-8.4,8.4c-4.7,0-8.4-3.8-8.4-8.4C985,832,988.7,828.2,993.4,828.2"/>
			<path id="XMLID_948_" fill-rule="evenodd" clip-rule="evenodd" fill="#F4872A" d="M993.4,1075.5c4.7,0,8.4,3.8,8.4,8.4
				c0,4.7-3.8,8.4-8.4,8.4c-4.7,0-8.4-3.8-8.4-8.4C985,1079.2,988.7,1075.5,993.4,1075.5"/>
			
				<rect id="XMLID_947_" x="1109.8" y="744.9" fill-rule="evenodd" clip-rule="evenodd" fill="#F6B653" width="65.6" height="413.2"/>
			<linearGradient id="XMLID_24_" gradientUnits="userSpaceOnUse" x1="805.7546" y1="358.945" x2="1159.7546" y2="996.945">
				<stop  offset="0" style="stop-color:#FFFFFF"/>
				<stop  offset="0.5269" style="stop-color:#FFE39A"/>
				<stop  offset="1" style="stop-color:#FFA954"/>
			</linearGradient>
			
				<rect id="XMLID_946_" x="1102.9" y="744.9" fill-rule="evenodd" clip-rule="evenodd" fill="url(#XMLID_24_)" width="63.2" height="413.2"/>
			<linearGradient id="XMLID_25_" gradientUnits="userSpaceOnUse" x1="859.9933" y1="477.4146" x2="1203.9933" y2="1139.4146">
				<stop  offset="0" style="stop-color:#FFFFFF"/>
				<stop  offset="0.5269" style="stop-color:#FFE39A"/>
				<stop  offset="1" style="stop-color:#FFA954"/>
			</linearGradient>
			
				<rect id="XMLID_945_" x="1102.9" y="744.9" fill-rule="evenodd" clip-rule="evenodd" fill="url(#XMLID_25_)" width="6.8" height="413.2"/>
			<path id="XMLID_944_" fill-rule="evenodd" clip-rule="evenodd" fill="#F6B653" d="M1143,828.2c4.7,0,8.4,3.8,8.4,8.4
				c0,4.7-3.8,8.4-8.4,8.4c-4.7,0-8.4-3.8-8.4-8.4C1134.6,832,1138.3,828.2,1143,828.2"/>
			<path id="XMLID_943_" fill-rule="evenodd" clip-rule="evenodd" fill="#F6B653" d="M1143,1075.5c4.7,0,8.4,3.8,8.4,8.4
				c0,4.7-3.8,8.4-8.4,8.4c-4.7,0-8.4-3.8-8.4-8.4C1134.6,1079.2,1138.3,1075.5,1143,1075.5"/>
		</g>
		<g id="XMLID_917_">
			<linearGradient id="XMLID_26_" gradientUnits="userSpaceOnUse" x1="482.3179" y1="429.6427" x2="1400.3179" y2="1207.6427">
				<stop  offset="0" style="stop-color:#F7D06A"/>
				<stop  offset="0.586" style="stop-color:#F37116"/>
				<stop  offset="1" style="stop-color:#974816"/>
			</linearGradient>
			<path id="XMLID_926_" fill-rule="evenodd" clip-rule="evenodd" fill="url(#XMLID_26_)" d="M1116.6,1160.5
				c-28.9-39.8-61.5-64-98.9-68.2c-27.5-79.5-72.3-136.3-132.9-172.5c-10.5-46.5-30.8-90.9-60.7-133L1006,664.5l161.7,257
				L1116.6,1160.5z"/>
			<linearGradient id="XMLID_27_" gradientUnits="userSpaceOnUse" x1="305.2187" y1="1136.0675" x2="831.2187" y2="766.0676">
				<stop  offset="0" style="stop-color:#F7D06A"/>
				<stop  offset="0.586" style="stop-color:#F37116"/>
				<stop  offset="1" style="stop-color:#974816"/>
			</linearGradient>
			<polygon id="XMLID_925_" fill-rule="evenodd" clip-rule="evenodd" fill="url(#XMLID_27_)" points="927.4,717.3 917.2,702.1 
				420,1036.4 430.2,1051.6 			"/>
			<linearGradient id="XMLID_28_" gradientUnits="userSpaceOnUse" x1="544.2759" y1="356.5355" x2="1462.2759" y2="1134.5354">
				<stop  offset="0" style="stop-color:#F7D06A"/>
				<stop  offset="0.586" style="stop-color:#F37116"/>
				<stop  offset="1" style="stop-color:#974816"/>
			</linearGradient>
			<path id="XMLID_924_" fill-rule="evenodd" clip-rule="evenodd" fill="url(#XMLID_28_)" d="M578.2,359.7
				c25.9,41.8,36,81.1,25.8,117.3c63.3,55.5,98.9,118.4,109.6,188.2c39.1,27.3,72.5,62.8,100.3,106.4l181.9-122.3l-177-246.7
				L578.2,359.7z"/>
			<linearGradient id="XMLID_29_" gradientUnits="userSpaceOnUse" x1="200.4174" y1="1082.535" x2="438.0899" y2="1082.535">
				<stop  offset="0" style="stop-color:#F37116"/>
				<stop  offset="0.9892" style="stop-color:#7E3700"/>
			</linearGradient>
			<path id="XMLID_923_" fill-rule="evenodd" clip-rule="evenodd" fill="url(#XMLID_29_)" d="M438.1,1063.4l-26.2-39l-122.5,82.3
				c-12.2,8.2-29.2,4.9-37.4-7.3c-8.2-12.2-4.9-29.2,7.3-37.4l20.8-14c15.4-10.3-8.7-50.8-26.2-39l-20.8,14
				c-33.8,22.7-42.8,68.9-20.1,102.7l0,0c22.7,33.8,68.9,42.8,102.7,20.1L438.1,1063.4z"/>
			<linearGradient id="XMLID_30_" gradientUnits="userSpaceOnUse" x1="1068.9415" y1="600.0225" x2="1102.0211" y2="600.0225">
				<stop  offset="0" style="stop-color:#F7D06A"/>
				<stop  offset="0.586" style="stop-color:#F37116"/>
				<stop  offset="1" style="stop-color:#974816"/>
			</linearGradient>
			<path id="XMLID_922_" fill-rule="evenodd" clip-rule="evenodd" fill="url(#XMLID_30_)" d="M1078.5,613.6l-8.2-12.2
				c-2.4-3.5-1.4-8.3,2.1-10.7l9.5-6.4c3.5-2.4,8.3-1.4,10.7,2.1l8.2,12.2c2.4,3.5,1.4,8.3-2.1,10.7l-9.5,6.4
				C1085.6,618.1,1080.8,617.1,1078.5,613.6"/>
			<linearGradient id="XMLID_31_" gradientUnits="userSpaceOnUse" x1="1093.9476" y1="584.8267" x2="1123.1265" y2="584.8267">
				<stop  offset="0" style="stop-color:#FFFFFF"/>
				<stop  offset="0.5269" style="stop-color:#FFE39A"/>
				<stop  offset="1" style="stop-color:#FFA954"/>
			</linearGradient>
			<path id="XMLID_921_" fill-rule="evenodd" clip-rule="evenodd" fill="url(#XMLID_31_)" d="M1099.3,596.5l-5.3-7.9l21.7-14.6
				c2.2-1.5,5.2-0.9,6.6,1.3l0,0c1.5,2.2,0.9,5.2-1.3,6.6L1099.3,596.5z"/>
			<linearGradient id="XMLID_32_" gradientUnits="userSpaceOnUse" x1="578.1855" y1="756.7686" x2="1183.161" y2="756.7686">
				<stop  offset="0" style="stop-color:#FFFFFF"/>
				<stop  offset="0.5269" style="stop-color:#FFE39A"/>
				<stop  offset="1" style="stop-color:#FFA954"/>
			</linearGradient>
			<path id="XMLID_920_" fill-rule="evenodd" clip-rule="evenodd" fill="url(#XMLID_32_)" d="M1116.6,1160.5
				c97.3-151.2,89.7-374-34.2-558.4C958.4,417.8,754.9,326.7,578.2,359.7c17.8,1.9,28.2,10.6,35,22.6
				c58.7,26.3,102.4,80.8,137.7,151.5c57,28.6,114.2,90.1,171.5,175.9c57.8,85.4,93.2,161.6,98.2,225.2
				c52.2,59.3,86.1,120.5,88.4,184.7C1117.4,1130.4,1121.5,1143.3,1116.6,1160.5"/>
			<linearGradient id="XMLID_33_" gradientUnits="userSpaceOnUse" x1="1020.4865" y1="894.3676" x2="1183.1439" y2="894.3676">
				<stop  offset="0" style="stop-color:#FFFFFF"/>
				<stop  offset="0.5269" style="stop-color:#FFE39A"/>
				<stop  offset="1" style="stop-color:#FFA954"/>
			</linearGradient>
			<path id="XMLID_919_" fill-rule="evenodd" clip-rule="evenodd" fill="url(#XMLID_33_)" d="M1180.5,972.7
				c10.2-97.8-9-204.1-59-303.6c28.4,131-30.1,202.6-101,265.8c52.2,59.3,86.1,120.5,88.4,184.7
				C1142.1,1084,1167.3,1036.9,1180.5,972.7"/>
			<linearGradient id="XMLID_34_" gradientUnits="userSpaceOnUse" x1="613.1385" y1="452.7899" x2="1035.0829" y2="452.7899">
				<stop  offset="0" style="stop-color:#FFFFFF"/>
				<stop  offset="0.5269" style="stop-color:#FFE39A"/>
				<stop  offset="1" style="stop-color:#FFA954"/>
			</linearGradient>
			<path id="XMLID_918_" fill-rule="evenodd" clip-rule="evenodd" fill="url(#XMLID_34_)" d="M776.2,371.4
				c94.4,27.5,185.6,85.3,258.9,169.2c-110.6-75.7-199-48.6-284.2-6.8c-35.3-70.7-79.1-125.2-137.7-151.5
				C658.7,365,711.8,359.4,776.2,371.4"/>
		</g>
		<g id="XMLID_8_">
			<path id="XMLID_954_" fill-rule="evenodd" clip-rule="evenodd" fill="#F6B653" d="M780.6,829.2c4.7,0,8.4,3.8,8.4,8.4
				c0,4.7-3.8,8.4-8.4,8.4c-4.7,0-8.4-3.8-8.4-8.4C772.2,833,776,829.2,780.6,829.2"/>
			<linearGradient id="XMLID_35_" gradientUnits="userSpaceOnUse" x1="413.9588" y1="903.184" x2="789.3166" y2="903.184">
				<stop  offset="0" style="stop-color:#F37116"/>
				<stop  offset="0.9892" style="stop-color:#7E3700"/>
			</linearGradient>
			<path id="XMLID_942_" fill-rule="evenodd" clip-rule="evenodd" fill="url(#XMLID_35_)" d="M787.7,1113.3
				c9-40-23.1-114.9-24.1-146.4c-1-31.5,20.8-219.2,12.6-311.3c-60-9.8-139-11.2-186.4,2.8c-11.7,56.3,11.3,175.9,12.2,269.3
				c0.8,72.7-17.8,132.6-131.6,137.9c-28.6-0.8-61.8,10.9-55.7,53.8c8.9,5.8,18.5,11.4,28.8,16.4l1.7-4.2l17.1,7.1l-1.9,4.5
				c8.1,3.2,16.6,6,25.4,8.3l1.2-4.9l18,4.3l-1.1,4.5c7.6,1.3,15.5,2.2,23.6,2.6l-0.1-4.5l18.5-0.6l0.2,5.2c9-0.4,18.2-1.3,27.6-2.9
				l-1.2-4.9l18-4.3l1.3,5.3c9.5-2.5,19.3-5.7,29.2-9.7c0.7-0.3,1.4-0.5,2.1-0.8l-1.7-5.7l17.8-5.2l1.5,5.3
				C691,1122.7,737.8,1137.9,787.7,1113.3"/>
			<linearGradient id="XMLID_36_" gradientUnits="userSpaceOnUse" x1="417.0589" y1="888.6987" x2="788.318" y2="888.6987">
				<stop  offset="0" style="stop-color:#FFE39A"/>
				<stop  offset="1" style="stop-color:#FFA954"/>
			</linearGradient>
			<path id="XMLID_941_" fill-rule="evenodd" clip-rule="evenodd" fill="url(#XMLID_36_)" d="M788.3,1081.3
				c-4.6-40-24-90.2-24.7-114.4c-0.1-4.3,0.2-11.5,0.7-20.9c-0.4-2.9-0.7-5.6-0.7-8c-0.8-25.1,13-149.6,14.3-245.8
				c-0.2-13.3-0.8-25.7-1.8-36.7c-60-9.8-139-11.2-186.4,2.8c-11.7,56.3,11.3,175.9,12.2,269.3c0.8,72.7-17.8,132.6-131.6,137.9
				c-21.2-0.6-44.9,5.7-53.3,26.4c-0.4,3.8,2.7,4.5,4.6,5.7c94.2,56.5,160.5,23,232.3,7.7c50.9-10.8,86.7,1.4,133.7-20.9
				C787.9,1083.4,788.1,1082.4,788.3,1081.3"/>
			<path id="XMLID_940_" fill-rule="evenodd" clip-rule="evenodd" fill="#FBA526" d="M788.3,1081.3c-4.6-40-24-90.2-24.7-114.4
				c-0.1-4.3,0.2-11.5,0.7-20.9c-0.4-2.9-0.7-5.6-0.7-8c-0.8-25.1,13-149.6,14.3-245.8c-0.2-13.3-0.8-25.7-1.8-36.7
				c-54.2-8.8-123.8-10.8-171.8-0.8c-8.3,61.2,8.4,192.6,9.4,281.3c2,194.2-172.9,103.8-193.8,160.8c33.2,18.7,63.9,29.8,93.2,31.9
				c50.6,3.6,96.4-13.9,140.9-23.3c50.9-10.8,86.7,1.4,133.7-20.9C787.9,1083.4,788.1,1082.4,788.3,1081.3"/>
			<linearGradient id="XMLID_37_" gradientUnits="userSpaceOnUse" x1="420.025" y1="888.6534" x2="758.4022" y2="888.6534">
				<stop  offset="0" style="stop-color:#F7D06A"/>
				<stop  offset="0.586" style="stop-color:#F37116"/>
				<stop  offset="1" style="stop-color:#974816"/>
			</linearGradient>
			<path id="XMLID_939_" fill-rule="evenodd" clip-rule="evenodd" fill="url(#XMLID_37_)" d="M754.6,652.5
				c-50.1-6.1-108.4-6.5-150.2,2.2c-8.3,61.2,8.4,192.6,9.4,281.3c2,194.2-172.9,103.8-193.8,160.8c33.2,18.7,63.9,29.8,93.2,31.9
				c50.6,3.6,96.4-13.9,140.9-23.3c26.7-5.7,50.1,0,71.4-6.4c65.6-19.6,12.4-63.5,15.7-124.9c-0.1-4.5,0.2-12,0.8-21.8
				c-0.4-3-0.7-5.8-0.8-8.4c-0.8-26.2,13.6-156.5,15-257.1C755.9,674.6,755.5,663,754.6,652.5"/>
			<linearGradient id="XMLID_38_" gradientUnits="userSpaceOnUse" x1="622.3303" y1="1133.9673" x2="736.3345" y2="1133.9673">
				<stop  offset="0" style="stop-color:#F37116"/>
				<stop  offset="0.9892" style="stop-color:#7E3700"/>
			</linearGradient>
			<path id="XMLID_938_" fill-rule="evenodd" clip-rule="evenodd" fill="url(#XMLID_38_)" d="M683.1,1153.6
				c-2.6-11-4.1-23.2-3.3-33.5c36.1,3.9,72.3-1,108.4-10.9c-1.5,9.9-4.8,34.5-7,44.4C767.6,1159.8,705.2,1161.3,683.1,1153.6"/>
			<linearGradient id="XMLID_39_" gradientUnits="userSpaceOnUse" x1="287.847" y1="1128.8065" x2="527.2578" y2="1128.8065">
				<stop  offset="0" style="stop-color:#F37116"/>
				<stop  offset="0.9892" style="stop-color:#7E3700"/>
			</linearGradient>
			<path id="XMLID_937_" fill-rule="evenodd" clip-rule="evenodd" fill="url(#XMLID_39_)" d="M787.7,1113.3c0.7-3.1,1.1-10.5,1.4-14
				c-56.7,27.1-109.9,7.9-167.7,28.6c-74.1,26.5-135.7,18.4-207.4-24.2c-0.4,4.6-0.2,9.8,0.6,15.7c8.9,5.8,18.5,11.4,28.8,16.4
				l1.7-4.2l17.1,7.1l-1.9,4.5c8.1,3.2,16.6,6,25.4,8.3l1.2-4.9l18,4.3l-1.1,4.5c7.6,1.3,15.5,2.2,23.6,2.6l-0.1-4.5l18.5-0.6
				l0.2,5.2c9-0.4,18.2-1.3,27.6-2.9l-1.2-4.9l18-4.3l1.3,5.3c9.5-2.5,19.3-5.7,29.2-9.7c0.7-0.3,1.4-0.5,2.1-0.8l-1.7-5.7l17.8-5.2
				l1.5,5.3C691,1122.7,737.8,1137.9,787.7,1113.3"/>
			<linearGradient id="XMLID_40_" gradientUnits="userSpaceOnUse" x1="586.6145" y1="657.7676" x2="777.0771" y2="657.7676">
				<stop  offset="0" style="stop-color:#F37116"/>
				<stop  offset="0.9892" style="stop-color:#7E3700"/>
			</linearGradient>
			<path id="XMLID_936_" fill-rule="evenodd" clip-rule="evenodd" fill="url(#XMLID_40_)" d="M777.1,663.7
				c-77.9-7.9-141.9-6.2-190.5,10.1l0.6-16.2c57.4-17.8,117.7-19.8,187.7-10.3L777.1,663.7z"/>
			<linearGradient id="XMLID_41_" gradientUnits="userSpaceOnUse" x1="587.2051" y1="663.2479" x2="777.0771" y2="663.2479">
				<stop  offset="0" style="stop-color:#F37116"/>
				<stop  offset="0.9892" style="stop-color:#7E3700"/>
			</linearGradient>
			<path id="XMLID_935_" fill-rule="evenodd" clip-rule="evenodd" fill="url(#XMLID_41_)" d="M587.2,657.6
				c77.9,7.9,139.9,6,188.4-10.3l1.5,15.6c-57.4,17.8-119.4,20.5-189.5,11L587.2,657.6z"/>
			<linearGradient id="XMLID_42_" gradientUnits="userSpaceOnUse" x1="484.5081" y1="903.4782" x2="859.8665" y2="903.4782">
				<stop  offset="0" style="stop-color:#F37116"/>
				<stop  offset="0.9892" style="stop-color:#7E3700"/>
			</linearGradient>
			<path id="XMLID_934_" fill-rule="evenodd" clip-rule="evenodd" fill="url(#XMLID_42_)" d="M858.3,1113.6
				c9-40-23.1-114.9-24.1-146.4c-1-31.5,20.8-219.2,12.6-311.3c-60-9.8-139-11.2-186.4,2.8C648.7,715,671.6,834.6,672.6,928
				c0.8,72.7-17.8,132.6-131.6,137.9c-28.6-0.8-61.8,10.9-55.7,53.8c8.9,5.8,18.5,11.4,28.8,16.4l1.7-4.2l17.1,7.1l-1.9,4.5
				c8.1,3.2,16.6,6,25.4,8.3l1.2-4.9l18,4.3l-1.1,4.5c7.6,1.3,15.5,2.2,23.6,2.6l-0.1-4.5l18.5-0.6l0.2,5.2c9-0.4,18.2-1.3,27.6-2.9
				l-1.2-4.9l18-4.3l1.3,5.3c9.5-2.5,19.3-5.7,29.2-9.7c0.7-0.3,1.4-0.5,2.1-0.8l-1.7-5.7l17.8-5.2l1.5,5.3
				C761.6,1123,808.3,1138.2,858.3,1113.6"/>
			<linearGradient id="XMLID_43_" gradientUnits="userSpaceOnUse" x1="487.6088" y1="888.9931" x2="858.8675" y2="888.9931">
				<stop  offset="0" style="stop-color:#FFE39A"/>
				<stop  offset="1" style="stop-color:#FFA954"/>
			</linearGradient>
			<path id="XMLID_933_" fill-rule="evenodd" clip-rule="evenodd" fill="url(#XMLID_43_)" d="M858.9,1081.6
				c-4.6-40-24-90.2-24.7-114.4c-0.1-4.3,0.2-11.5,0.7-20.9c-0.4-2.9-0.7-5.6-0.7-8c-0.8-25.1,13-149.6,14.3-245.8
				c-0.2-13.3-0.8-25.7-1.8-36.7c-60-9.8-139-11.2-186.4,2.8C648.7,715,671.6,834.6,672.6,928c0.8,72.7-17.8,132.6-131.6,137.9
				c-21.2-0.6-44.9,5.7-53.3,26.4c-0.4,3.8,2.7,4.5,4.6,5.7c94.2,56.5,160.5,23,232.3,7.7c50.9-10.8,86.7,1.3,133.7-20.9
				C858.5,1083.7,858.7,1082.7,858.9,1081.6"/>
			<linearGradient id="XMLID_44_" gradientUnits="userSpaceOnUse" x1="490.5744" y1="888.9476" x2="858.8675" y2="888.9476">
				<stop  offset="0" style="stop-color:#F37116"/>
				<stop  offset="0.9892" style="stop-color:#7E3700"/>
			</linearGradient>
			<path id="XMLID_932_" fill-rule="evenodd" clip-rule="evenodd" fill="url(#XMLID_44_)" d="M858.9,1081.6
				c-4.6-40-24-90.2-24.7-114.4c-0.1-4.3,0.2-11.5,0.7-20.9c-0.4-2.9-0.7-5.6-0.7-8c-0.8-25.1,13-149.6,14.3-245.8
				c-0.2-13.3-0.8-25.7-1.8-36.7c-54.2-8.8-123.8-10.8-171.8-0.8c-8.3,61.2,8.4,192.6,9.4,281.3c2,194.2-172.9,103.8-193.8,160.8
				c33.2,18.7,63.9,29.8,93.2,31.9c50.6,3.6,96.4-13.9,140.9-23.3c50.9-10.8,86.7,1.3,133.7-20.9
				C858.5,1083.7,858.7,1082.7,858.9,1081.6"/>
			<linearGradient id="XMLID_45_" gradientUnits="userSpaceOnUse" x1="490.5744" y1="888.9478" x2="828.9517" y2="888.9478">
				<stop  offset="0" style="stop-color:#F7D06A"/>
				<stop  offset="0.586" style="stop-color:#F37116"/>
				<stop  offset="1" style="stop-color:#974816"/>
			</linearGradient>
			<path id="XMLID_931_" fill-rule="evenodd" clip-rule="evenodd" fill="url(#XMLID_45_)" d="M825.2,652.8
				c-50.1-6.1-108.4-6.5-150.2,2.2c-8.3,61.2,8.4,192.6,9.4,281.3c2,194.2-172.9,103.8-193.8,160.8c33.2,18.7,63.9,29.8,93.2,31.9
				c50.6,3.6,96.4-13.9,140.9-23.3c26.7-5.7,50.1,0,71.4-6.4c65.6-19.6,12.4-63.5,15.7-124.9c-0.1-4.5,0.2-12,0.8-21.8
				c-0.4-3-0.7-5.8-0.8-8.4c-0.8-26.2,13.6-156.5,15-257.1C826.5,674.9,826,663.3,825.2,652.8"/>
			<linearGradient id="XMLID_46_" gradientUnits="userSpaceOnUse" x1="885.179" y1="1151.4812" x2="879.1793" y2="1149.9812">
				<stop  offset="0" style="stop-color:#F37116"/>
				<stop  offset="0.9892" style="stop-color:#7E3700"/>
			</linearGradient>
			<path id="XMLID_930_" fill-rule="evenodd" clip-rule="evenodd" fill="url(#XMLID_46_)" d="M753.7,1153.9
				c-2.6-11-4.1-23.2-3.3-33.5c36.1,3.9,72.3-1,108.4-10.9c-1.5,9.9-4.8,34.5-7,44.4C838.1,1160.1,775.7,1161.6,753.7,1153.9"/>
			<linearGradient id="XMLID_47_" gradientUnits="userSpaceOnUse" x1="398.8415" y1="1129.1007" x2="678.3029" y2="1129.1007">
				<stop  offset="0" style="stop-color:#F37116"/>
				<stop  offset="0.9892" style="stop-color:#7E3700"/>
			</linearGradient>
			<path id="XMLID_929_" fill-rule="evenodd" clip-rule="evenodd" fill="url(#XMLID_47_)" d="M858.3,1113.6c0.7-3.1,1.1-10.5,1.4-14
				c-56.7,27.1-109.9,7.9-167.7,28.6c-74.1,26.5-135.7,18.4-207.4-24.2c-0.4,4.6-0.2,9.8,0.6,15.7c8.9,5.8,18.5,11.4,28.8,16.4
				l1.7-4.2l17.1,7.1l-1.9,4.5c8.1,3.2,16.6,6,25.4,8.3l1.2-4.9l18,4.3l-1.1,4.5c7.6,1.3,15.5,2.2,23.6,2.6l-0.1-4.5l18.5-0.6
				l0.2,5.2c9-0.4,18.2-1.3,27.6-2.9l-1.2-4.9l18-4.3l1.3,5.3c9.5-2.5,19.3-5.7,29.2-9.7c0.7-0.3,1.4-0.5,2.1-0.8l-1.7-5.7l17.8-5.2
				l1.5,5.3C761.6,1123,808.3,1138.2,858.3,1113.6"/>
			<linearGradient id="XMLID_48_" gradientUnits="userSpaceOnUse" x1="657.1636" y1="658.0621" x2="847.627" y2="658.0621">
				<stop  offset="0" style="stop-color:#F37116"/>
				<stop  offset="0.9892" style="stop-color:#7E3700"/>
			</linearGradient>
			<path id="XMLID_928_" fill-rule="evenodd" clip-rule="evenodd" fill="url(#XMLID_48_)" d="M847.6,664
				c-77.9-7.9-141.9-6.2-190.5,10.1l0.6-16.2c57.4-17.8,117.7-19.8,187.7-10.3L847.6,664z"/>
			<linearGradient id="XMLID_49_" gradientUnits="userSpaceOnUse" x1="657.7545" y1="663.5422" x2="847.627" y2="663.5422">
				<stop  offset="0" style="stop-color:#F37116"/>
				<stop  offset="0.9892" style="stop-color:#7E3700"/>
			</linearGradient>
			<path id="XMLID_927_" fill-rule="evenodd" clip-rule="evenodd" fill="url(#XMLID_49_)" d="M657.8,657.9
				c77.9,7.9,139.9,6,188.4-10.3l1.5,15.6c-57.4,17.8-119.4,20.5-189.5,11L657.8,657.9z"/>
		</g>
	</g>
	<g id="XMLID_643_">
		<linearGradient id="XMLID_50_" gradientUnits="userSpaceOnUse" x1="467.4043" y1="657.2241" x2="637.4043" y2="573.2241">
			<stop  offset="0" style="stop-color:#F7D06A"/>
			<stop  offset="0.586" style="stop-color:#F37116"/>
			<stop  offset="1" style="stop-color:#974816"/>
		</linearGradient>
		<path id="XMLID_1010_" fill-rule="evenodd" clip-rule="evenodd" fill="url(#XMLID_50_)" d="M534.3,612.2
			c-21.2-7.9-41.3-5.7-58,6.8c-16.1,12.1-20.7,41.7-36.7,65.9C503.8,695.9,539.1,648.6,534.3,612.2"/>
		<linearGradient id="XMLID_51_" gradientUnits="userSpaceOnUse" x1="425.8209" y1="711.3496" x2="550.9528" y2="586.2177">
			<stop  offset="0" style="stop-color:#F7D06A"/>
			<stop  offset="0.586" style="stop-color:#C85E16"/>
			<stop  offset="1" style="stop-color:#974816"/>
		</linearGradient>
		<path id="XMLID_1009_" fill-rule="evenodd" clip-rule="evenodd" fill="url(#XMLID_51_)" d="M564.4,597.6
			c-16.9,3.7-41,18.3-44.5,20.4c-5.5-3.6-19.5-8.4-30.8-6.3c8.8,0.5,20.8,3.1,28.5,7.7c-4.1,2.6-7.9,5.2-11.4,8
			c-9.2-5.8-26.6-8.2-35.6-2.8c10.2-1.1,24.1-1.1,33.6,4.4c-4.5,3.7-8.7,7.4-12.6,11.2c-7.7-4.9-22.6-7.5-29.7-1.5
			c6.4-2.6,21.8-0.3,27.9,3.2c-2.4,2.4-4.8,4.8-7.1,7.1l-0.1,0.1l-1.4,1.5c-1.4,1.4-2.8,2.8-4.2,4.2c-5.6-2.8-15.1-3.8-22.3,0.2
			c0.5-0.1,1.1-0.2,1.6-0.2c6.9-0.9,13.8-0.3,18.9,1.9c-4.6,4.6-9.4,9.2-14.6,13.4c-3.4-1.4-9-1-13,0.7c5.6,0.3,8.1,0.2,10.8,1.1
			c-5.2,4.1-11.7,9.5-18.8,13.1c10.8-2.4,19.4-9.9,26.2-15.9c0.2,5.3-1.5,11.4-4.4,17.4c5.2-5.3,7.4-13.7,6.7-19.4
			c3.5-3.1,6.8-6.4,10.1-9.7l0.1-0.1c1.6-1.6,3.1-3.2,4.7-4.8l0.1-0.1c3,9.7-0.2,23.8-4.9,32c7.9-5.9,10.3-24.6,6.8-34
			c4.8-4.9,9.7-9.8,15.1-14.6c3.1,6.9,3,16.3,1.2,25.6c-1.1,5.9-3,11.6-5.1,16.5c9.5-13.7,11.7-31.7,5.8-43.7
			c3.6-3.1,7.5-6.2,11.7-9.1c6.3,9.6,5.2,25.6,4.1,36.2c3.7-8.4,5.2-24.5-2.1-37.5c9.9-7.3,42.1-21.9,52.2-22.6
			C570.5,600.9,569.8,596.4,564.4,597.6"/>
	</g>
	<g id="XMLID_648_">
		<linearGradient id="XMLID_52_" gradientUnits="userSpaceOnUse" x1="1052.6187" y1="931.3514" x2="1241.9524" y2="837.7982">
			<stop  offset="0" style="stop-color:#F7D06A"/>
			<stop  offset="0.586" style="stop-color:#F37116"/>
			<stop  offset="1" style="stop-color:#974816"/>
		</linearGradient>
		<path id="XMLID_650_" fill-rule="evenodd" clip-rule="evenodd" fill="url(#XMLID_52_)" d="M1127.2,881.2
			c-23.6-8.8-46-6.4-64.5,7.6c-17.9,13.5-23.1,46.5-40.9,73.4C1093.2,974.5,1132.5,921.8,1127.2,881.2"/>
		<linearGradient id="XMLID_53_" gradientUnits="userSpaceOnUse" x1="1006.306" y1="991.6325" x2="1145.6689" y2="852.2696">
			<stop  offset="0" style="stop-color:#F7D06A"/>
			<stop  offset="0.586" style="stop-color:#C85E16"/>
			<stop  offset="1" style="stop-color:#974816"/>
		</linearGradient>
		<path id="XMLID_649_" fill-rule="evenodd" clip-rule="evenodd" fill="url(#XMLID_53_)" d="M1160.7,864.9
			c-18.8,4.2-45.7,20.4-49.5,22.7c-6.2-4.1-21.7-9.3-34.3-7c9.8,0.6,23.1,3.5,31.8,8.6c-4.6,2.9-8.8,5.8-12.7,8.9
			c-10.2-6.5-29.6-9.2-39.7-3.1c11.4-1.2,26.8-1.2,37.4,4.9c-5.1,4.1-9.7,8.3-14.1,12.5c-8.6-5.4-25.2-8.3-33-1.6
			c7.1-2.9,24.3-0.4,31.1,3.6c-2.7,2.6-5.3,5.3-7.9,7.9l-0.1,0.1l-1.6,1.6c-1.5,1.6-3.1,3.2-4.6,4.7c-6.2-3.1-16.9-4.3-24.9,0.2
			c0.6-0.1,1.2-0.2,1.8-0.3c7.6-1,15.4-0.4,21.1,2.1c-5.2,5.2-10.4,10.2-16.2,14.9c-3.7-1.5-10-1.1-14.5,0.8c6.2,0.3,9,0.3,12,1.2
			c-5.8,4.5-13.1,10.5-20.9,14.6c12.1-2.7,21.6-11,29.2-17.7c0.2,5.9-1.7,12.7-4.9,19.4c5.7-5.9,8.3-15.3,7.4-21.6
			c3.9-3.5,7.6-7.1,11.2-10.8l0.1-0.1c1.8-1.8,3.5-3.6,5.2-5.3l0.2-0.2c3.3,10.9-0.2,26.5-5.5,35.7c8.8-6.6,11.4-27.4,7.6-37.8
			c5.3-5.4,10.8-10.9,16.8-16.3c3.4,7.7,3.3,18.2,1.3,28.5c-1.3,6.5-3.3,12.9-5.7,18.4c10.6-15.3,13-35.3,6.4-48.7
			c4-3.5,8.4-6.9,13.1-10.1c7,10.7,5.8,28.5,4.5,40.3c4.2-9.3,5.8-27.3-2.4-41.8c11-8.1,46.9-24.4,58.1-25.2
			C1167.4,868.7,1166.7,863.6,1160.7,864.9"/>
	</g>
	<g id="XMLID_651_">
		
			<linearGradient id="XMLID_54_" gradientUnits="userSpaceOnUse" x1="9020.7471" y1="910.9829" x2="9161.0137" y2="841.6743" gradientTransform="matrix(-1 7.937946e-003 7.937946e-003 1 9343.1006 -37.0831)">
			<stop  offset="0" style="stop-color:#F7D06A"/>
			<stop  offset="0.586" style="stop-color:#F37116"/>
			<stop  offset="1" style="stop-color:#974816"/>
		</linearGradient>
		<path id="XMLID_653_" fill-rule="evenodd" clip-rule="evenodd" fill="url(#XMLID_54_)" d="M274.3,908.8c17.4-6.6,34-5,47.9,5.3
			c13.4,9.9,17.4,34.3,30.7,54.2C300.1,977.7,270.6,938.9,274.3,908.8"/>
		
			<linearGradient id="XMLID_55_" gradientUnits="userSpaceOnUse" x1="8986.4355" y1="955.642" x2="9089.6826" y2="852.3954" gradientTransform="matrix(-1 7.937946e-003 7.937946e-003 1 9343.1006 -37.0831)">
			<stop  offset="0" style="stop-color:#F7D06A"/>
			<stop  offset="0.586" style="stop-color:#C85E16"/>
			<stop  offset="1" style="stop-color:#974816"/>
		</linearGradient>
		<path id="XMLID_652_" fill-rule="evenodd" clip-rule="evenodd" fill="url(#XMLID_55_)" d="M249.4,896.9c14,3,34,14.9,36.8,16.5
			c4.6-3,16-7,25.4-5.4c-7.2,0.5-17.1,2.7-23.5,6.5c3.4,2.1,6.5,4.3,9.4,6.5c7.5-4.9,21.9-7,29.4-2.5c-8.5-0.9-19.9-0.7-27.7,3.8
			c3.8,3,7.2,6.1,10.5,9.2c6.3-4.1,18.6-6.3,24.5-1.4c-5.3-2.1-18-0.1-23,2.8c2,1.9,4,3.9,5.9,5.8l0.1,0.1l1.2,1.2
			c1.2,1.2,2.3,2.3,3.5,3.5c4.6-2.3,12.5-3.3,18.4,0c-0.4-0.1-0.9-0.1-1.3-0.2c-5.7-0.7-11.4-0.2-15.6,1.7c3.9,3.8,7.8,7.5,12.1,11
			c2.8-1.1,7.4-0.9,10.7,0.5c-4.6,0.2-6.7,0.2-8.9,1c4.3,3.3,9.8,7.7,15.6,10.7c-9-1.9-16-8-21.8-12.9c-0.1,4.4,1.3,9.4,3.7,14.3
			c-4.3-4.3-6.2-11.3-5.6-16c-2.9-2.6-5.6-5.2-8.4-7.9l-0.1-0.1c-1.3-1.3-2.6-2.6-3.9-3.9l-0.1-0.1c-2.4,8.1,0.3,19.6,4.3,26.4
			c-6.6-4.8-8.6-20.2-5.8-28c-4-4-8-8-12.6-11.9c-2.5,5.7-2.4,13.5-0.8,21.1c1,4.8,2.5,9.6,4.3,13.6c-7.9-11.2-9.8-26.1-5.1-36
			c-3-2.5-6.2-5-9.7-7.4c-5.1,7.9-4.1,21.2-3.1,29.9c-3.1-6.9-4.4-20.2,1.5-31c-8.2-6-34.9-17.8-43.2-18.3
			C244.5,899.7,245,896,249.4,896.9"/>
	</g>
	<g id="XMLID_645_">
		
			<linearGradient id="XMLID_56_" gradientUnits="userSpaceOnUse" x1="4508.5059" y1="4652.938" x2="4624.5835" y2="4595.582" gradientTransform="matrix(0.2342 -0.9722 -0.9722 -0.2342 4311.1631 5736.0054)">
			<stop  offset="0" style="stop-color:#F7D06A"/>
			<stop  offset="0.586" style="stop-color:#F37116"/>
			<stop  offset="1" style="stop-color:#974816"/>
		</linearGradient>
		<path id="XMLID_647_" fill-rule="evenodd" clip-rule="evenodd" fill="url(#XMLID_56_)" d="M884.1,226c1.8,15.3-2.8,28.3-13.8,37.4
			c-10.6,8.8-31,7.1-49.6,13.8C823.6,232.8,860.7,217,884.1,226"/>
		
			<linearGradient id="XMLID_57_" gradientUnits="userSpaceOnUse" x1="4480.1128" y1="4689.895" x2="4565.5537" y2="4604.4541" gradientTransform="matrix(0.2342 -0.9722 -0.9722 -0.2342 4311.1631 5736.0054)">
			<stop  offset="0" style="stop-color:#F7D06A"/>
			<stop  offset="0.586" style="stop-color:#C85E16"/>
			<stop  offset="1" style="stop-color:#974816"/>
		</linearGradient>
		<path id="XMLID_646_" fill-rule="evenodd" clip-rule="evenodd" fill="url(#XMLID_57_)" d="M898.6,208.3
			c-5.2,10.6-18.7,24.3-20.7,26.3c1.5,4.3,2.4,14.3-0.7,21.5c1.1-5.9,1.2-14.3-0.6-20.2c-2.4,2.3-4.7,4.4-7.1,6.3
			c2.4,7,1.2,18.9-3.9,24.1c2.4-6.6,4.6-15.8,2.5-23c-3.2,2.4-6.3,4.6-9.5,6.6c2,5.9,1.3,16.2-3.8,19.9c2.7-3.8,3.7-14.4,2.3-19
			c-2,1.2-3.9,2.4-5.9,3.6l-0.1,0l-1.2,0.7c-1.2,0.7-2.3,1.4-3.5,2.1c1,4.2,0.1,10.7-3.7,14.8c0.1-0.3,0.3-0.7,0.4-1
			c1.7-4.4,2.4-9.1,1.8-12.8c-3.8,2.3-7.6,4.8-11.2,7.5c0.4,2.4-0.8,6.1-2.5,8.5c0.7-3.7,1.1-5.4,1-7.3c-3.5,2.8-8.2,6.3-11.7,10.4
			c3.3-6.8,9.7-11.3,14.7-14.9c-3.5-1-7.8-0.8-12.3,0.1c4.3-2.6,10.3-2.7,14-1.3c2.6-1.8,5.3-3.5,8.1-5.1l0.1-0.1
			c1.3-0.8,2.6-1.6,3.9-2.4l0.1-0.1c-6-3.5-15.8-3.7-22.1-1.9c5.2-4.3,18-2.9,23.6,0.9c4-2.4,8.1-4.9,12.1-7.7
			c-4.1-3.2-10.4-4.6-16.8-4.9c-4.1-0.2-8.2,0.1-11.8,0.7c10.6-4.1,22.9-2.7,29.9,3.2c2.6-1.9,5.3-4,7.9-6.3
			c-5.3-5.7-16.2-7.5-23.4-8.5c6.2-1.1,17.1,0.5,24.6,7.4c6.4-5.4,21.3-24.4,23.3-31C897.3,203.8,900.2,204.9,898.6,208.3"/>
	</g>
	<g id="XMLID_657_">
		
			<linearGradient id="XMLID_58_" gradientUnits="userSpaceOnUse" x1="9501.4785" y1="1382.1516" x2="9617.5557" y2="1324.7957" gradientTransform="matrix(-0.9837 -0.1799 -0.1799 0.9837 10603.125 961.8616)">
			<stop  offset="0" style="stop-color:#F7D06A"/>
			<stop  offset="0.586" style="stop-color:#F37116"/>
			<stop  offset="1" style="stop-color:#974816"/>
		</linearGradient>
		<path id="XMLID_659_" fill-rule="evenodd" clip-rule="evenodd" fill="url(#XMLID_58_)" d="M968.6,573.2
			c15.2-2.7,28.4,1.2,38.1,11.7c9.3,10.1,8.8,30.6,16.6,48.8C978.8,633.2,960.9,597.1,968.6,573.2"/>
		
			<linearGradient id="XMLID_59_" gradientUnits="userSpaceOnUse" x1="9473.085" y1="1419.1089" x2="9558.5254" y2="1333.6678" gradientTransform="matrix(-0.9837 -0.1799 -0.1799 0.9837 10603.125 961.8616)">
			<stop  offset="0" style="stop-color:#F7D06A"/>
			<stop  offset="0.586" style="stop-color:#C85E16"/>
			<stop  offset="1" style="stop-color:#974816"/>
		</linearGradient>
		<path id="XMLID_658_" fill-rule="evenodd" clip-rule="evenodd" fill="url(#XMLID_59_)" d="M950.2,559.7
			c10.9,4.6,25.3,17.4,27.4,19.2c4.2-1.8,14.1-3.2,21.5-0.4c-6-0.7-14.3-0.4-20.1,1.7c2.4,2.2,4.6,4.5,6.7,6.7
			c6.9-2.8,18.8-2.3,24.3,2.5c-6.7-2-16.1-3.7-23.1-1.2c2.6,3,4.9,6.1,7.1,9.1c5.8-2.3,16.1-2.2,20.1,2.7c-4-2.5-14.6-2.9-19.1-1.3
			c1.3,1.9,2.6,3.8,3.9,5.7l0,0.1l0.8,1.2c0.8,1.1,1.5,2.2,2.3,3.4c4.1-1.2,10.6-0.7,15,2.9c-0.4-0.1-0.7-0.2-1.1-0.4
			c-4.5-1.4-9.3-1.9-12.9-1.1c2.5,3.7,5.2,7.3,8.1,10.8c2.4-0.5,6.2,0.4,8.7,2.1c-3.8-0.5-5.5-0.8-7.4-0.6c3,3.4,6.7,7.8,11,11.1
			c-7-3-11.8-9-15.7-13.9c-0.8,3.5-0.4,7.9,0.8,12.2c-2.8-4.2-3.3-10.1-2.1-13.9c-2-2.5-3.8-5.1-5.6-7.8l-0.1-0.1
			c-0.9-1.3-1.7-2.5-2.6-3.8l-0.1-0.1c-3.2,6.2-2.8,16-0.6,22.1c-4.6-5-3.9-17.8-0.4-23.7c-2.6-3.9-5.3-7.8-8.3-11.7
			c-2.9,4.2-4,10.6-3.9,17c0,4.1,0.6,8.2,1.4,11.7c-4.7-10.4-3.9-22.7,1.5-30.1c-2.1-2.5-4.3-5.1-6.8-7.6
			c-5.4,5.7-6.6,16.6-7.2,23.8c-1.5-6.1-0.5-17.1,6-24.9c-5.8-6.1-25.6-19.9-32.3-21.6C945.7,561.2,946.7,558.2,950.2,559.7"/>
	</g>
	<g id="XMLID_654_">
		
			<linearGradient id="XMLID_60_" gradientUnits="userSpaceOnUse" x1="10092.6572" y1="1382.0215" x2="10208.7344" y2="1324.6655" gradientTransform="matrix(-0.9837 -0.1799 -0.1799 0.9837 10603.125 961.8616)">
			<stop  offset="0" style="stop-color:#F7D06A"/>
			<stop  offset="0.586" style="stop-color:#F37116"/>
			<stop  offset="1" style="stop-color:#974816"/>
		</linearGradient>
		<path id="XMLID_656_" fill-rule="evenodd" clip-rule="evenodd" fill="url(#XMLID_60_)" d="M387.1,466.7
			c15.2-2.7,28.4,1.2,38.1,11.7c9.3,10.1,8.8,30.6,16.6,48.8C397.3,526.7,379.4,490.6,387.1,466.7"/>
		
			<linearGradient id="XMLID_61_" gradientUnits="userSpaceOnUse" x1="10064.2637" y1="1418.9789" x2="10149.7051" y2="1333.5377" gradientTransform="matrix(-0.9837 -0.1799 -0.1799 0.9837 10603.125 961.8616)">
			<stop  offset="0" style="stop-color:#F7D06A"/>
			<stop  offset="0.586" style="stop-color:#C85E16"/>
			<stop  offset="1" style="stop-color:#974816"/>
		</linearGradient>
		<path id="XMLID_655_" fill-rule="evenodd" clip-rule="evenodd" fill="url(#XMLID_61_)" d="M368.7,453.2
			c10.9,4.6,25.3,17.4,27.4,19.2c4.2-1.8,14.1-3.2,21.5-0.4c-6-0.7-14.3-0.4-20.1,1.7c2.4,2.2,4.6,4.5,6.7,6.7
			c6.9-2.8,18.8-2.3,24.3,2.5c-6.7-2-16.1-3.7-23.1-1.2c2.6,3,4.9,6.1,7.1,9.1c5.8-2.3,16.1-2.2,20.1,2.7c-4-2.5-14.6-2.9-19.1-1.3
			c1.3,1.9,2.6,3.8,3.9,5.7l0,0.1l0.8,1.2c0.8,1.1,1.5,2.2,2.3,3.4c4.1-1.2,10.6-0.7,15,2.9c-0.4-0.1-0.7-0.2-1.1-0.4
			c-4.5-1.4-9.3-1.9-12.9-1.1c2.5,3.7,5.2,7.3,8.1,10.8c2.4-0.5,6.2,0.4,8.7,2.1c-3.8-0.5-5.5-0.8-7.4-0.6c3,3.4,6.7,7.8,11,11.1
			c-7-3-11.8-9-15.7-13.9c-0.8,3.5-0.4,7.9,0.8,12.2c-2.8-4.2-3.3-10.1-2.1-13.9c-2-2.5-3.8-5.1-5.6-7.8l-0.1-0.1
			c-0.9-1.3-1.7-2.5-2.6-3.8l-0.1-0.1c-3.2,6.2-2.8,16-0.6,22.1c-4.6-5-3.9-17.8-0.4-23.7c-2.6-3.9-5.3-7.8-8.3-11.7
			c-2.9,4.2-4,10.6-3.9,17c0,4.1,0.6,8.2,1.4,11.7c-4.7-10.4-3.9-22.7,1.5-30.1c-2.1-2.5-4.3-5.1-6.8-7.6
			c-5.4,5.7-6.6,16.6-7.2,23.8c-1.5-6.1-0.5-17.1,6-24.9c-5.8-6.1-25.6-19.9-32.3-21.6C364.2,454.7,365.2,451.7,368.7,453.2"/>
	</g>
</g>
</svg>
